<svg xmlns="http://www.w3.org/2000/svg" viewBox="0 0 24 24">
    <g fill="none" fill-rule="evenodd">
        <g fill="#060B11">
            <g>
                <path d="M6.784 8.589l.07.057L12 13.793l5.146-5.147c.196-.195.512-.195.708 0 .173.174.192.443.057.638l-.057.07-5.5 5.5c-.066.065-.144.108-.227.13l-.084.014h-.086c-.085-.007-.168-.036-.241-.087l-.07-.057-5.5-5.5c-.195-.196-.195-.512 0-.708.152-.151.378-.185.562-.1l.076.043z" transform="translate(-210 -568) translate(210 568)"/>
            </g>
        </g>
    </g>
</svg>