<svg viewBox="0 0 1024 1024" class="rejt-plus-menu sto-1sq7n9w"><path d="M512-.2a512 512 0 110 1024 512 512 0 010-1024zm0 91.4c-112.3 0-218 43.8-297.4 123.2A417.8 417.8 0 0091.4 511.8c0 112.4 43.8 218 123.2 297.4A417.8 417.8 0 00512 932.4c112.3 0 218-43.8 297.4-123.2a417.8 417.8 0 00123.2-297.4c0-112.3-43.8-218-123.2-297.4A417.8 417.8 0 00512 91.2zm1.1 129.2a45.7 45.7 0 0145.7 45.7v201.1H760a45.7 45.7 0 010 91.5H558.8v201.1a45.7 45.7 0 11-91.4 0V558.7H266.3a45.7 45.7 0 110-91.5h201.1V266.1a45.7 45.7 0 0145.7-45.7z" class="sto-kqzqgg"></path></svg>